<?xml version="1.0" encoding="iso-8859-1"?>
<!-- Generator: Adobe Illustrator 19.0.0, SVG Export Plug-In . SVG Version: 6.00 Build 0)  -->
<svg xmlns="http://www.w3.org/2000/svg" xmlns:xlink="http://www.w3.org/1999/xlink" version="1.1" id="Capa_1" x="0px" y="0px" viewBox="0 0 512 512" style="enable-background:new 0 0 512 512;" xml:space="preserve" width="512px" height="512px">
<g>
	<g>
		<g>
			<path d="M384,181.333c0-5.896-4.771-10.667-10.667-10.667h-320c-5.896,0-10.667,4.771-10.667,10.667V224     c0,5.896,4.771,10.667,10.667,10.667h320c5.896,0,10.667-4.771,10.667-10.667V181.333z M362.667,213.333H64V192h298.667V213.333z     " fill="#FFFFFF"/>
			<path d="M53.333,128H288c5.896,0,10.667-4.771,10.667-10.667c0-5.896-4.771-10.667-10.667-10.667H53.333     c-5.896,0-10.667,4.771-10.667,10.667C42.667,123.229,47.438,128,53.333,128z" fill="#FFFFFF"/>
			<circle cx="362.667" cy="106.667" r="21.333" fill="#FFFFFF"/>
			<path d="M298.667,309.333c0-5.896-4.771-10.667-10.667-10.667s-10.667,4.771-10.667,10.667c0,19.229,6.906,29.594,12.458,37.917     c4.958,7.438,8.875,13.313,8.875,26.083c0,5.896,4.771,10.667,10.667,10.667c5.896,0,10.667-4.771,10.667-10.667     c0-19.229-6.906-29.594-12.458-37.917C302.583,327.979,298.667,322.104,298.667,309.333z" fill="#FFFFFF"/>
			<path d="M117.333,298.667c-5.896,0-10.667,4.771-10.667,10.667c0,12.771-3.917,18.646-8.875,26.083     c-5.552,8.323-12.458,18.688-12.458,37.917C85.333,379.229,90.104,384,96,384s10.667-4.771,10.667-10.667     c0-12.771,3.917-18.646,8.875-26.083c5.552-8.323,12.458-18.688,12.458-37.917C128,303.438,123.229,298.667,117.333,298.667z" fill="#FFFFFF"/>
			<path d="M202.667,298.667c-5.896,0-10.667,4.771-10.667,10.667v64c0,5.896,4.771,10.667,10.667,10.667     c5.896,0,10.667-4.771,10.667-10.667v-64C213.333,303.438,208.563,298.667,202.667,298.667z" fill="#FFFFFF"/>
			<path d="M448,298.667h-10.667V288c0-5.896-4.771-10.667-10.667-10.667S416,282.104,416,288v10.667h-10.667     c-5.896,0-10.667,4.771-10.667,10.667c0,5.896,4.771,10.667,10.667,10.667H416v10.667c0,5.896,4.771,10.667,10.667,10.667     s10.667-4.771,10.667-10.667V320H448c5.896,0,10.667-4.771,10.667-10.667C458.667,303.438,453.896,298.667,448,298.667z" fill="#FFFFFF"/>
			<path d="M448,384h-42.667c-5.896,0-10.667,4.771-10.667,10.667s4.771,10.667,10.667,10.667H448     c5.896,0,10.667-4.771,10.667-10.667S453.896,384,448,384z" fill="#FFFFFF"/>
			<path d="M469.333,234.667h-42.667V85.333c0-23.531-19.135-42.667-42.667-42.667H42.667C19.135,42.667,0,61.802,0,85.333v149.333     c0,23.531,19.135,42.667,42.667,42.667h298.667V384c0,47.052,38.281,85.333,85.333,85.333S512,431.052,512,384V277.333     C512,253.802,492.865,234.667,469.333,234.667z M347.267,256h-304.6c-11.76,0-21.333-9.573-21.333-21.333V85.333     C21.333,73.573,30.906,64,42.667,64H384c11.76,0,21.333,9.573,21.333,21.333v149.333H384     C368.275,234.667,354.667,243.309,347.267,256z M490.667,384c0,35.292-28.708,64-64,64s-64-28.708-64-64V277.333     c0-11.76,9.573-21.333,21.333-21.333h85.333c11.76,0,21.333,9.573,21.333,21.333V384z" fill="#FFFFFF"/>
		</g>
	</g>
</g>
<g>
</g>
<g>
</g>
<g>
</g>
<g>
</g>
<g>
</g>
<g>
</g>
<g>
</g>
<g>
</g>
<g>
</g>
<g>
</g>
<g>
</g>
<g>
</g>
<g>
</g>
<g>
</g>
<g>
</g>
</svg>
