<?xml version="1.0" encoding="utf-8"?>
<!-- Generator: Adobe Illustrator 22.0.0, SVG Export Plug-In . SVG Version: 6.00 Build 0)  -->
<svg version="1.1" id="Слой_1" xmlns="http://www.w3.org/2000/svg" xmlns:xlink="http://www.w3.org/1999/xlink" x="0px" y="0px"
	 viewBox="0 0 76 76" style="enable-background:new 0 0 76 76;" xml:space="preserve">
<style type="text/css">
	.st0{fill:#FFFFFF;}
</style>
<g>
	<g>
		<g>
			<path class="st0" d="M38,50.7c5.2,0,9.5-4.4,9.5-9.9S43.2,31,38,31s-9.5,4.4-9.5,9.9S32.8,50.7,38,50.7z M38,34.3
				c3.5,0,6.3,2.9,6.3,6.6c0,3.6-2.8,6.6-6.3,6.6s-6.3-2.9-6.3-6.6C31.7,37.2,34.5,34.3,38,34.3z"/>
			<path class="st0" d="M36.4,42.5c0.9,0,1.6-0.7,1.6-1.6c0.9,0,1.6-0.7,1.6-1.6s-0.7-1.6-1.6-1.6c-1.7,0-3.2,1.5-3.2,3.3
				C34.8,41.7,35.5,42.5,36.4,42.5z"/>
			<path class="st0" d="M74.4,8H1.6C0.7,8,0,8.7,0,9.6v11.5c0,3.6,2.8,6.6,6.3,6.6v6.6c0,18.1,14.2,32.8,31.7,32.8
				s31.7-14.7,31.7-32.8v-6.6c3.5,0,6.3-2.9,6.3-6.6V9.6C76,8.7,75.3,8,74.4,8z M66.5,34.3c0,16.3-12.8,29.6-28.5,29.6
				S9.5,50.6,9.5,34.3v-6.6h19.1c-3.9,3-6.4,7.7-6.4,13.1c0,9.1,7.1,16.4,15.8,16.4s15.8-7.4,15.8-16.4c0-5.4-2.6-10.1-6.4-13.1
				h19.1V34.3z M38,27.7c7,0,12.7,5.9,12.7,13.1S45,54,38,54s-12.7-5.9-12.7-13.1C25.3,33.6,31,27.7,38,27.7z M72.8,21.1
				c0,1.8-1.4,3.3-3.2,3.3H6.3c-1.7,0-3.2-1.5-3.2-3.3v-9.9h69.7V21.1z"/>
			<ellipse class="st0" cx="58.6" cy="32.6" rx="1.6" ry="1.6"/>
		</g>
	</g>
</g>
</svg>
