<?xml version="1.0" encoding="utf-8"?>
<!-- Generator: Adobe Illustrator 22.0.0, SVG Export Plug-In . SVG Version: 6.00 Build 0)  -->
<svg version="1.1" id="Слой_1" xmlns="http://www.w3.org/2000/svg" xmlns:xlink="http://www.w3.org/1999/xlink" x="0px" y="0px"
	 viewBox="0 0 12 12" style="enable-background:new 0 0 12 12;" xml:space="preserve">
<style type="text/css">
	.st0{fill:#606060;}
</style>
<g>
	<path class="st0" d="M11.6,2.4L8,6l3.6,3.6c0.5,0.5,0.5,1.4,0,2c-0.3,0.3-0.6,0.4-1,0.4c-0.4,0-0.7-0.1-1-0.4L6,8l-3.6,3.6
		c-0.3,0.3-0.6,0.4-1,0.4c-0.4,0-0.7-0.1-1-0.4c-0.5-0.5-0.5-1.4,0-2L4,6L0.4,2.4c-0.5-0.5-0.5-1.4,0-2c0.5-0.5,1.4-0.5,2,0L6,4
		l3.6-3.6c0.5-0.5,1.4-0.5,2,0C12.1,0.9,12.1,1.8,11.6,2.4z"/>
</g>
</svg>
